<?xml version="1.0"?>
<svg xmlns="http://www.w3.org/2000/svg" viewBox="0 0 50 50">
    <path d="M 25 2 C 15.4 2 7.4875 9.10625 6.1875 18.40625 C 8.8875 15.30625 13.6875 11.3 19.6875 10 C 20.1875 9.9 20.80625 10.2125 20.90625 10.8125 C 21.00625 11.3125 20.69375 11.9 20.09375 12 C 12.19375 13.7 6.6 20.5875 6 22.1875 L 6 24 C 6 36.7 16.6 48 25 48 C 30.2 48 36.2875 43.5875 40.1875 37.1875 C 34.4875 41.1875 27.49375 42 27.09375 42 L 27 42 C 26.5 42 26.1 41.59375 26 41.09375 C 25.9 40.59375 26.30625 40.1 26.90625 40 C 27.00625 40 37.4 38.80625 42.5 32.40625 C 43.5 29.80625 44 26.9 44 24 L 44 21 C 44 10.5 35.5 2 25 2 z M 25 16 C 32 16 39 20 39 25 C 39 28.5 35 29 33 29 C 30.1 29 27.2 27 25 27 C 22.8 27 19.9 29 17 29 C 15 29 11 28.5 11 25 C 11 20 18 16 25 16 z M 15.8125 20 A 1.0001 1.0001 0 0 0 15.6875 21.9375 L 17.59375 22.59375 C 17.231821 22.955679 17 23.447716 17 24 C 17 25.104569 17.895431 26 19 26 C 20.104569 26 21 25.104569 21 24 C 21 23.893604 20.984753 23.789402 20.96875 23.6875 L 21.6875 23.9375 A 1.0001 1.0001 0 1 0 22.3125 22.0625 L 16.3125 20.0625 A 1.0001 1.0001 0 0 0 15.8125 20 z M 33.84375 20 A 1.0001 1.0001 0 0 0 33.6875 20.0625 L 27.6875 22.0625 A 1.0001 1.0001 0 1 0 28.3125 23.9375 L 29.03125 23.6875 C 29.015247 23.789402 29 23.893604 29 24 C 29 25.104569 29.895431 26 31 26 C 32.104569 26 33 25.104569 33 24 C 33 23.447715 32.768179 22.955679 32.40625 22.59375 L 34.3125 21.9375 A 1.0001 1.0001 0 0 0 33.84375 20 z M 4.6875 30.09375 C 3.3875 32.09375 2 35.5 2 41 C 2 41.6 2.4 42 3 42 C 5.3 42 6.99375 40.3875 8.09375 38.1875 C 6.59375 35.7875 5.3875 32.99375 4.6875 30.09375 z M 9.3125 40.09375 C 8.3125 41.69375 7.09375 42.80625 5.59375 43.40625 C 6.09375 44.20625 6.6875 44.6875 6.6875 44.6875 C 6.8875 44.8875 7.10625 45 7.40625 45 C 7.60625 45 7.80625 44.9125 7.90625 44.8125 C 8.00625 44.7125 9.50625 43.7 10.40625 41.5 C 10.00625 41.1 9.7125 40.59375 9.3125 40.09375 z"/>
</svg>
